# xmcd CD database file
#
# Track frame offsets:
#	167
#	26631
#	46789
#	65912
#	99186
#	129932
#	156866
#	185220
#	212240
#	240160
#	258386
#	275470
#	301847
#	325453
#
# Disc length: 4702 seconds
#
# Revision: 5
# Processed by: cddbd v1.5.1PL0 Copyright (c) Steve Scherf et al.
# Submitted via: CDex 1.50
#
DISCID=c2125c0e
DTITLE=Various Artist - New jazz deluxe 2 [CD1)
DYEAR=2003
DGENRE=Jazz
TTITLE0=Dzihan and Kamien - Stiff Jazz
TTITLE1=Nuspirit Helsinki - Silent Steps
TTITLE2=Rune Lindbae k - Kru Kontroll
TTITLE3=Gabin - Doo Uap, Doo Uap, Doo Uap
TTITLE4=Laurent de Wilde - Moanin
TTITLE5=S-tone Inc - Take 4
TTITLE6=Tosca - Mango di Bango
TTITLE7=D-genre - Just you and me
TTITLE8=Square One - Swell Sounds
TTITLE9=Oscar - Freezer
TTITLE10=Mr Scruff - Beyond
TTITLE11=Jagga Jazzist - Low Battery
TTITLE12=Tutto Matto - Mango n'Soda
TTITLE13=Visit Venus - Hurt of a Nerd
EXTD=YEAR: 2003
EXTT0=
EXTT1=
EXTT2=
EXTT3=
EXTT4=
EXTT5=
EXTT6=
EXTT7=
EXTT8=
EXTT9=
EXTT10=
EXTT11=
EXTT12=
EXTT13=
PLAYORDER=
